<svg xmlns="http://www.w3.org/2000/svg" viewBox="0 0 1840.7 606.39"><defs><style>.cls-1,.cls-3,.cls-4,.cls-5{fill:none;}.cls-1,.cls-4{stroke:#111;}.cls-1,.cls-3,.cls-5,.cls-6{stroke-linecap:round;}.cls-1,.cls-3,.cls-4,.cls-5,.cls-6{stroke-linejoin:round;}.cls-1,.cls-3,.cls-4,.cls-6{stroke-width:6px;}.cls-2{fill:#111;}.cls-3,.cls-5,.cls-6{stroke:#6d6d6d;}.cls-5{stroke-width:9px;}.cls-6{fill:#fff;}.cls-7{fill:#6d6d6d;}</style></defs><g id="Layer_2" data-name="Layer 2"><g id="outine"><g id="Learning"><g id="iPad"><g id="holder"><polyline id="shape" class="cls-1" points="323.45 416.97 143.49 601.64 421.59 602.85"/><g id="lines"><path class="cls-1" d="M328.92,430.18c-4.3,15.63-7.85,42.38-1.89,59.81,9,26.41,24.25,59.48,34.39,70.9,7.27,8.19,48.57,37,60.17,42"/><path class="cls-1" d="M207.69,584.19c40.88-30,86.79-76.4,98.78-92.69,6.61-9,13-20.92,17.41-30.37"/><path class="cls-1" d="M382.24,577.64c-8.34-3.06-20.89-4.65-30.16-5.15-32.87-1.77-92.22,5-110.22,5-23.38.11-76.72,22.61-85.83,25.32"/></g></g><g id="ipad-2" data-name="ipad"><path id="shape-2" data-name="shape" class="cls-1" d="M1082.62,264.23l-36.21-77.65a49.61,49.61,0,0,0-45-28.66h-751A30.27,30.27,0,0,0,223,201l18.23,39.09-5.91,2.45a7.24,7.24,0,0,0-3.92,9.45l15,36.33a7.25,7.25,0,0,0,9.46,3.92l8.1-3.35L401.67,584.22a32.86,32.86,0,0,0,29.77,19"/><polyline id="screen" class="cls-1" points="949.57 569.23 515.69 569.23 339.73 191.88 990.33 191.88 1081.6 387.6"/><g id="website"><line class="cls-1" x1="759.13" y1="260.82" x2="890.67" y2="542.9"/><path class="cls-1" d="M1016.48,301.12c-2,.8-240.06-3.22-238.56,0"/><path class="cls-1" d="M1063.63,402.24c-2,.81-240.06-3.22-238.55,0"/><path class="cls-1" d="M1051.48,487.36c-70.5-.7-187.65-2-186.6.24"/><line class="cls-1" x1="810.64" y1="325.9" x2="909.77" y2="325.9"/><line class="cls-1" x1="820.31" y1="346.65" x2="978.08" y2="346.65"/><line class="cls-1" x1="828.02" y1="363.18" x2="929.77" y2="363.18"/><line class="cls-1" x1="835.72" y1="379.7" x2="871.79" y2="379.7"/><line class="cls-1" x1="856.2" y1="423.62" x2="1013.97" y2="423.62"/><line class="cls-1" x1="863.91" y1="440.14" x2="965.66" y2="440.14"/><line class="cls-1" x1="871.61" y1="456.66" x2="907.68" y2="456.66"/><line class="cls-1" x1="893.72" y1="504.07" x2="1051.48" y2="504.07"/><line class="cls-1" x1="901.42" y1="520.59" x2="1003.17" y2="520.59"/><line class="cls-1" x1="446.13" y1="301.23" x2="677.64" y2="301.23"/><line class="cls-1" x1="454.82" y1="319.86" x2="686.32" y2="319.86"/><line class="cls-1" x1="547.18" y1="517.91" x2="778.68" y2="517.91"/><line class="cls-1" x1="495.72" y1="346.65" x2="655.3" y2="346.65"/><line class="cls-1" x1="504.65" y1="365.79" x2="640.95" y2="365.79"/><line class="cls-1" x1="546.41" y1="391.18" x2="723.61" y2="392.69"/><line class="cls-1" x1="554.79" y1="409.15" x2="731.99" y2="410.66"/><line class="cls-1" x1="580.93" y1="465.21" x2="758.13" y2="466.72"/><line class="cls-1" x1="588.21" y1="480.83" x2="765.42" y2="482.34"/><line class="cls-1" x1="532.05" y1="430.38" x2="634.81" y2="430.38"/><line class="cls-1" x1="540.17" y1="447.8" x2="642.93" y2="447.8"/><line class="cls-1" x1="566.1" y1="503.41" x2="625.24" y2="503.41"/><polyline class="cls-1" points="1031.02 542.9 532.84 542.9 401.3 260.82 997.69 260.82 1071.91 419.98"/><line class="cls-1" x1="413.34" y1="241.28" x2="443.87" y2="241.28"/><line class="cls-1" x1="546.62" y1="241.28" x2="571.31" y2="241.28"/><line class="cls-1" x1="599.31" y1="241.28" x2="618.65" y2="241.28"/><line class="cls-1" x1="950.96" y1="241.28" x2="970.3" y2="241.28"/><line class="cls-1" x1="917.88" y1="241.28" x2="937.22" y2="241.28"/><line class="cls-1" x1="472.52" y1="241.28" x2="516.7" y2="241.28"/><polygon class="cls-1" points="980.07 223.02 383.68 223.02 401.3 260.82 997.69 260.82 980.07 223.02"/></g><g id="lines-2" data-name="lines"><path id="headphones_line" data-name="headphones line" class="cls-1" d="M374.66,518.73c4.73-.13,12.34,1.35,15.82,11.37,2.4,6.91.18,11.8-2.72,15"/><path id="button_line" data-name="button line" class="cls-1" d="M242.94,239.1l5.15-2.13c5.11-2.12,10.77-.18,12.64,4.33l13.84,33.45c1.86,4.51-.77,9.88-5.89,12l-2.52,1.05"/><line id="line" class="cls-1" x1="460.89" y1="601.82" x2="253.89" y2="157.92"/></g><g id="circles"><circle class="cls-1" cx="390.15" cy="379.82" r="12.27"/><circle class="cls-1" cx="399.6" cy="403.17" r="5.02"/></g></g></g><g id="woman"><g id="legs"><g id="shoes"><g id="_2" data-name="2"><path id="_2-2" data-name="2" class="cls-1" d="M1041.36,529.33c-4.1,7.45-13.73,18.71-36.26,28.81-30,2.93-72.67,6.52-73.65,38.17v5.87"/><path id="_2-3" data-name="2" class="cls-1" d="M1047.43,528.32h-8.73c-4.69,0-8.7-3.06-7.45-5.69l6.47-13.62c.65-1.35,3.58-4.31,5.2-3.53h15.55"/></g><g id="_1" data-name="1"><path id="_1-2" data-name="1" class="cls-1" d="M1060.25,530.51c-4.18,9.52-14.2,24.2-37.86,34.8-30,2.94-63.94-.65-64.92,31v5.87"/><path id="_1-3" data-name="1" class="cls-1" d="M1083.48,530.62h-30c-4.68,0-7.74-3.66-5.67-6.8L1060.17,505a6.76,6.76,0,0,1,5.67-2.64l39.87.73"/></g></g><g id="trousers"><path class="cls-2" d="M1424.17,323.92c1.72,10.78,1,18.35-3.08,21.05-29.77,19.67-93.68.38-138.61-23.3-13.22.57-22.14.91-22.14.91l-2.72-7.14h0c-10.95.43-23.11-.42-26.3,0l-26.59-7.13c-12.06,11.48-20,6.12-17.77,3.54,1.36-1.56,7.09-5.88,11.42-9.06h0l-1.21-.7c-1.86,1.08-4.26,2.54-7.35,4.53-12.15,7.84-17,1.64-15.09-.49,1.1-1.21,8.09-5.45,14-8.92l-1-.58-9.9,4.55c-.34.17-.67.31-1,.44-21.43,25.67-57.87,94.38-103,194.21a3,3,0,0,1-5.47-2.47C1093.81,437,1139.48,340.13,1169,301.8c-1.89-.87-2.8-2.41-2-3.8.61-1,4.41-3.31,9.35-5.93-10.63-1.7-21.29-1.83-31.26.57L1129.22,307s-16.52,4.24-22.5,11.81c-6.7,8.5-12.83,19.53-18,34.28-10.8,30.62-47.32,151-47.32,151h67.06l3.25-49.73s52.49,1.51,75.5.9c19.73-20.08,40.09-44.38,51.6-68.36a3,3,0,0,1,.23-1.53c4-9.13,6.76-17,7.89-22.84a3,3,0,0,1,5.31-1.28c5.23,6.67,36,21.76,64.39,29.87a3,3,0,0,1,2.16,3c41-8.06,108.72-21.55,108.51-24.23C1433.2,359.11,1433.59,344.23,1424.17,323.92Z"/><path id="shape_II" data-name="shape II" class="cls-2" d="M1244.49,387.77l0,.06a150.29,150.29,0,0,0,43.83,12.34c.66-.23,9.55-2,22.54-4.52-23.2-7.1-48.53-18.7-59.26-26.91A147.1,147.1,0,0,1,1244.49,387.77Z"/></g></g><g id="head"><path id="neck" class="cls-1" d="M1239.8,91.29l12.41,31.16,25.81-2.74s-6.31,49.37-37.6,59.68c-21.21,7-31.9-8.24-35.36-24.83"/><path id="hoop_2" data-name="hoop 2" class="cls-3" d="M1131,149.1c-7.72-1.63-11.85-13-9.24-25.38s9.7-22.38,17.42-20.75l5,5.93c3.1,4.24,6.92,14.08,5.52,20.72-2.59,12.25-10.81,20.91-18.45,19.53Z"/><path id="shape-3" data-name="shape" class="cls-1" d="M1217,128.64c12-13.15,18-34.23,14.59-56.21-5.19-33-29.93-55.53-55.26-50.34s-41.64,36.13-36.45,69.11c3.16,20,13.53,36.23,26.86,44.68"/><g id="face"><polyline id="nose" class="cls-1" points="1175.16 102.38 1167.89 106.43 1165.78 81.89"/><path id="brow_II" data-name="brow II" class="cls-1" d="M1190.43,63.91s-9.9-4.46-14.5,3.34"/><path id="brow" class="cls-1" d="M1154.26,73.57s-11-.4-12.65,8.11"/><ellipse id="eye_II" data-name="eye II" class="cls-2" cx="1184.39" cy="84.34" rx="3.66" ry="5.46" transform="translate(39.71 399.92) rotate(-19.49)"/><ellipse id="eye" class="cls-2" cx="1155.28" cy="94.07" rx="3.64" ry="5.48" transform="translate(9.9 271.88) rotate(-13.48)"/><path id="mouth" class="cls-1" d="M1190.41,109.86s-3.54,15.77-16.68,9.23"/></g><path id="hoop_front" data-name="hoop front" class="cls-3" d="M1238.28,83.08c-7.59-2.13-16.53,6-20,18.21s0,23.8,7.55,25.93l.26.07"/><path id="hair" class="cls-2" d="M1287.84,69.65c-6.42-49.89-40.23-83.89-88.18-63.76a90.27,90.27,0,0,0-18.28.39l-.15-.11c-108,8.76-69.81,72.23-69.81,72.23l17.23-5.24c.94,10.18,5,18.26,11.92,21.86-.26-1.26-2-18.3-1.13-25.13l47.34-14.39c-3.87-7.2,2.36-21.48,6.88-30.11.75,10.11,5.64,48.64,36,38.3.19.66,1.35-1,2.76-4a16.5,16.5,0,0,1,20.13,3.46c5.91,6.81,4.91,17.37-2.26,23.59a17.54,17.54,0,0,1-13,4.3c8.73,17.51,14.86,31.45,14.86,31.45s34.65-3.91,42.6-3.59Z"/><path id="hoop_back" data-name="hoop back" class="cls-3" d="M1226.13,127.29c7.54,1.88,16.31-6.22,19.7-18.27,1.83-6.53,1.72-12.9,0-17.73"/><path id="ear" class="cls-1" d="M1233.74,90.3a17.31,17.31,0,0,0,16.56-3.6c7.16-6.22,8.17-16.78,2.26-23.59S1236,55.82,1228.88,62"/></g><g id="shirt"><path id="shirt-2" data-name="shirt" class="cls-1" d="M1290.16,325.58c44.27,21.8,102.82,38,130.93,19.39,7-4.64,4.09-23.66-4-48.71,4.33-8.15,5.3-19.13-2.08-33.39-16.29-31.44-44.94-116.31-82.47-137l-.07-.05-.09,0a40.83,40.83,0,0,0-5.23-2.41,42.64,42.64,0,0,0-14.5-3c-13.4-1.94-28.75-2-39.76-1.51"/><line id="shirt-3" data-name="shirt" class="cls-1" x1="1141.76" y1="295.64" x2="1199.73" y2="243.3"/><path class="cls-1" d="M1191.36,198.26c3.58,27.52,1.25,49,33.58,58.86l6.93,23.78"/><path class="cls-1" d="M1295.68,176c5.34,19.43,15.75,44,32.42,73.88-15.48,3.17-85.54,26.12-85.54,26.12L1262,326.2s121.44-8.33,132-11.63c5.66-1.77,16.24-7.06,22.16-16.69"/><path class="cls-1" d="M1328.1,249.88s17.62-10.79,33.18-1.4"/></g><g id="hand"><path class="cls-1" d="M1202.76,280.2c-6.39.34-32.17,4.1-34.87,6s-1.62,7.34,5.62,6.06l3.82-.71"/><path class="cls-4" d="M1244.48,279.36l-15.54,3.09c-7.73-.69-24.74-3-26.66-2.41-6.27,2.07-33.57,15-35.28,18s4.15,6.51,10.81,3.19l19.36-8.89s-20.49,11.7-22.44,13.84,2.94,8.33,15.09.49,13.63-7.5,13.63-7.5-14.24,10.15-16.49,12.73,5.71,7.94,17.77-3.54l26.59,7.13c3.19-.42,15.35.43,26.3,0"/></g><g id="thinking_hand" data-name="thinking hand"><g id="hand-2" data-name="hand"><path class="cls-1" d="M1198.51,142.45c7.79-2.77,22.7-8.68,22.18-12.13-.73-4.86-31.08.43-40.41,1.9-4.78.76-13.76,4.48-21.37,7.93a39.41,39.41,0,0,0-21,23.24c-1.46,4.34-1.13,7-4.34,13.31"/><path class="cls-1" d="M1161.32,195.22c2-7.05,2.9-11.51,2.9-11.51,5.48.07,12.26-7.43,19.39-12.26"/><path class="cls-1" d="M1180.33,139.6s22.41.67,24.78,7.93-3.86,8.28-3.86,8.28"/><path class="cls-1" d="M1180.54,148.56s19.9,2.29,21.73,9.71-4.46,8-4.46,8"/><path class="cls-1" d="M1180.29,159.63s23.89,3.15,15.74,12.27-12.77,8.64-12.77,8.64-6.78-3.45,2.94-10.78"/></g><path id="sleve" class="cls-1" d="M1121.38,173.57,1170.47,202l-28.6,92s-19.23,28.56-48.15,19.67C1062.6,302.52,1080.89,258.31,1121.38,173.57Z"/></g></g><g id="books"><g id="_1-4" data-name="1"><path class="cls-1" d="M1685,539.42a133.6,133.6,0,0,1,0,39.93"/><path class="cls-1" d="M1703.5,603.19H1084.74V513.76H1703.5c7,0,12.64,5.23,12.64,11.69s-5.66,11.69-12.64,11.69H1110v42.67H1703.5c7,0,12.64,5.24,12.64,11.69S1710.48,603.19,1703.5,603.19Z"/></g><g id="_2-4" data-name="2"><polyline class="cls-5" points="1693.57 506.49 1110.21 506.49 1110.21 455.85 1693.57 455.85"/><path class="cls-3" d="M1687.49,506.49s-25.64-25.32,0-50.64H1110.21v50.64Z"/><line class="cls-6" x1="1143.66" y1="455.85" x2="1143.66" y2="506.49"/><path class="cls-7" d="M1180.33,485.12s52.06-3.76,52.06,36.82v49.6l18-16.62,19.79,16.62v-49.6s.15-36.91-42.11-36.91S1180.33,485.12,1180.33,485.12Z"/><line class="cls-6" x1="1180.33" y1="486.07" x2="1283.92" y2="486.07"/></g></g><g id="binder"><polyline id="cover" class="cls-1" points="1645.59 322.34 1287.1 401.57 1287.1 449.28 1658.25 449.28"/><g id="circles-2" data-name="circles"><path class="cls-1" d="M1287.09,411.31a15.93,15.93,0,1,1,.56,27.45"/><circle class="cls-1" cx="1321.88" cy="422.69" r="22.52"/></g><g id="orange_lines" data-name="orange lines"><line class="cls-1" x1="1327.69" y1="404.31" x2="1640.13" y2="337.91"/><line class="cls-1" x1="1331.67" y1="412.07" x2="1658.25" y2="356.25"/><line class="cls-1" x1="1337.66" y1="421.32" x2="1666.95" y2="384.16"/><line class="cls-1" x1="1329.83" y1="439.38" x2="1658.25" y2="434.52"/><line class="cls-1" x1="1336.48" y1="430.6" x2="1664.39" y2="410.66"/></g></g><line id="line-2" data-name="line" class="cls-1" x1="3" y1="603.39" x2="1837.7" y2="603.39"/></g></g></g></svg>