<svg xmlns="http://www.w3.org/2000/svg" viewBox="0 0 1270.77 801.49"><defs><style>.cls-1,.cls-3{fill:none;stroke:#111;stroke-linecap:round;stroke-linejoin:round;}.cls-1{stroke-width:6px;}.cls-2{fill:#111;}.cls-3{stroke-width:8px;}.cls-4{fill:#6d6d6d;}</style></defs><g id="Layer_2" data-name="Layer 2"><g id="outline_II" data-name="outline II"><g id="developer"><path id="chair" class="cls-1" d="M109.36,798V452.1a139,139,0,0,1,139-139H433.64"/><g id="body"><path id="hoodie" class="cls-1" d="M503.15,291c-104.49,19-113,65.58-90.42,110.37-32.12,16.1-84.43,48.95-136.48,110.07"/><path id="hoodie-2" data-name="hoodie" class="cls-1" d="M859.12,519.63c-30.29-46.91-72-95.07-129.22-140.23h0c.16-27.94-5.59-64.1-46.39-84.08"/><path id="hoodie-3" data-name="hoodie" class="cls-1" d="M260.33,794.11a70.14,70.14,0,0,0,22.8,4.38"/><path id="hoodie-4" data-name="hoodie" class="cls-1" d="M201.17,634.07a176.21,176.21,0,0,0-9.38,48.78"/><path id="t-shirt" class="cls-2" d="M658.41,676.14c-7-62.07-12-137.78,0-172.67,22.12-64.41,6.92-129.52-8-141.23-7.5-7.5,4,31-52,92-60-70-119.25-104.29-119.25-104.29l-21.59,22.2s102.78,78.17,136.22,266.53q2.44,13.79,4.42,25.75"/><path id="neck" class="cls-1" d="M503.85,292.94l-2.05,35.41-20.39,23.42h0s60.29,37.27,118,103c0,0,31.07-32.8,47.22-86.87"/><g id="hand"><path id="hand-2" data-name="hand" class="cls-1" d="M598.48,665c18.2,3.33,41.31,7.77,60.06,12.08"/><path id="hand-3" data-name="hand" class="cls-1" d="M658.54,677c16.34,3.76,29.37,7.4,33,10.12,11.72,8.85,60.36,56.5,62.14,64.27s-12.48,12.09-24.25.12l-34.69-33.08s35.34,40.22,38.07,46.37-11.06,17-31.48-8.86-23.67-26.1-23.67-26.1,23.35,32.54,26.45,39.91S687.51,784.1,669.46,750l-75.66-3.32"/><path id="sleeve" class="cls-1" d="M378.6,798s173.06-11.74,192.46-16.72,12.21-19.17,26.26-24.58,18.55-9.75,18.55-9.75c-18.22-29.06,0-77.2,0-77.2s-4.77-1.3-19.52-4.34-10-18.22-29.93-20-191.28,17.78-191.28,17.78"/><path id="line" class="cls-1" d="M386.86,611.58s32.49,3.17,40.75,45.83"/><path id="welt" class="cls-2" d="M599.7,758.67c15.21-5.72,20.07-10.32,20.07-10.32-19.71-30.77,0-81.74,0-81.74s-5.16-1.38-21.12-4.6c-6.42-1.29-9.78-4.57-12.48-8.27-32.68,37.07-12.71,102.09-4,125.69C589.85,772.7,588.17,763,599.7,758.67Z"/></g><path id="shadow" class="cls-2" d="M729.9,379.4l-3-2c0,9.35-.76,17.78-1,24.38-2,46.14-21.33,72.63-30.15,91,29.47-18.2,56.48-57.36,69.81-83.19Q748.79,394.35,729.9,379.4Z"/><path id="shadow_II" data-name="shadow II" class="cls-2" d="M513.29,502.93c-15.85-7.29-74.58-56.51-98.9-104.69-15.83,7.94-38.2,23.07-61.38,40.51,17.13,9.82,115.45,65.06,160.58,64.7Z"/><path id="string_II" data-name="string II" class="cls-3" d="M524.78,488.83s33.18,69.06,37.74,116"/><path id="string" class="cls-3" d="M678.6,491.85s-15.26,66.08-10.25,112.94"/></g><g id="code_lines" data-name="code lines"><rect class="cls-4" x="983.71" y="314.73" width="16.67" height="22.84" rx="5"/><rect class="cls-2" x="862.66" y="314.73" width="114.64" height="22.84" rx="5"/><rect class="cls-2" x="862.66" y="420.81" width="125.02" height="22.84" rx="5"/><rect class="cls-4" x="894.27" y="385.5" width="193.9" height="22.84" rx="5"/><rect class="cls-4" x="1099.02" y="385.5" width="104.73" height="22.84" rx="5"/><rect class="cls-2" x="1222.52" y="350.18" width="16.67" height="22.84" rx="5"/><rect class="cls-2" x="862.66" y="350.11" width="200.5" height="22.84" rx="5"/><rect class="cls-2" x="1007.73" y="314.73" width="114.64" height="22.84" rx="5"/><rect class="cls-4" x="1072.13" y="350.04" width="141.43" height="22.98" rx="5"/></g><path class="cls-2" d="M1119.8,519.36H731a11,11,0,0,0-10.71,8.47l-54,228.81H525.29S517.48,797,563,797h496.38a11,11,0,0,0,10.71-8.47l60.38-255.62A11,11,0,0,0,1119.8,519.36ZM916.23,628.88s-14.26,5.72-19-11.12C897.21,617.76,915.08,613.42,916.23,628.88Zm14.27,64.35c-11.3,12-29.89,15.61-41.52,8s-11.91-23.57-.61-35.61a38.64,38.64,0,0,1,18.93-11,11.15,11.15,0,0,1-1.53-5.68c0-6.69,5-13.05,11.18-14.18l.34,0c1.6-4.9,4.89-14.14,8.06-17.88a3,3,0,1,1,4.58,3.88c-2.19,2.58-4.94,9.9-6.64,15a10.14,10.14,0,0,1,5,9.12,14.9,14.9,0,0,1-4.12,10.11,23.89,23.89,0,0,1,5.74,2.68C941.52,665.25,941.79,681.2,930.5,693.23Z"/><g id="hot_coffie" data-name="hot coffie"><circle id="handle" class="cls-1" cx="164.16" cy="716.14" r="26.5"/><path id="mug" class="cls-2" d="M171.05,680.17V766a30,30,0,0,0,30,30h50.6a30,30,0,0,0,30-30v-85.8ZM215.79,743a2.06,2.06,0,0,1,1,1.76,2,2,0,0,1-2,2,2.13,2.13,0,0,1-1-.25l-20-12a2,2,0,0,1,0-3.62l20-12a2.13,2.13,0,0,1,1-.25,2,2,0,0,1,2,2,2.06,2.06,0,0,1-1,1.76l-17.21,10.31Zm25-29.58-16.1,40.25a2.11,2.11,0,0,1-1.83,1.16,2,2,0,0,1-2-2A2.06,2.06,0,0,1,221,752l16.1-40.25a2.23,2.23,0,0,1,.43-.58,1.92,1.92,0,0,1,1.4-.58,2,2,0,0,1,2,2A2.06,2.06,0,0,1,240.79,713.41ZM268,734.49l-20,12a2.13,2.13,0,0,1-1,.25,2,2,0,0,1-2-2,2.06,2.06,0,0,1,1-1.76l17.21-10.31L246,722.37a2.06,2.06,0,0,1-1-1.76,2,2,0,0,1,2-2,2.13,2.13,0,0,1,1,.25l20,12a2,2,0,0,1,0,3.62Z"/><path id="steam" class="cls-1" d="M227,649.66c2.79,30.24-51.61-40-44-80.62s36.78-39,49-61.87c7.37-13.75,6.81-22.78,5.19-27.79a1.88,1.88,0,0,1,2.68-2.25c14.26,7.76,51.72,33.19,39.29,81.27C258.7,629.88,221.3,588.18,227,649.66Z"/></g><g id="head"><path id="ear" class="cls-1" d="M489.93,209.29s-38.43.74-31.55,35.14c4.55,22.77,24.69,21.75,37.8,18.46"/><path id="face" class="cls-1" d="M537.64,276.88s41.91-14.42,101.94-15.3c0,0,32.74.68,45.79,4.63,0,0-.17,3.61-.8,9.51,4.57-32.94,7.63-79.21,2-122.17-7.59-57.9-77-53.54-87.14-52.7C490.61,109.89,498,217.31,498,217.31l0,.22,12.18-1C516.57,222.94,533.5,259.73,537.64,276.88Z"/><path id="beard" class="cls-1" d="M510.26,216.56c6.31,6.38,23.24,43.17,27.38,60.32,0,0,41.91-14.42,101.94-15.3,0,0,32.74.68,45.79,4.63,0,0-2.83,60.74-29.37,92.18S573.34,381,547,362.13,516.35,334.2,510.26,314s-22.19-95.65-22.19-95.65Z"/><path id="hair" class="cls-2" d="M488.39,227.24s-13.16-25.65-20.13-54.7c-6.55-27.31,6.15-55.93,31.43-68.17,21.16-10.24,36.85-2.21,36.85-2.21s-22.46-38.23,11.23-72a61.39,61.39,0,0,1,45.09-18c41.14,1.21,53.85,36,53.85,36s44-80.91,134.34-33c9.11,4.83,19.37,18.3,24.28,27.37,29.83,55-68.46,120-119.63,125.2-56.18,5.65-89.08-3.66-107.17-17.4C592,158.4,572,240.18,488.39,227.24Z"/><path id="mouth" class="cls-3" d="M602.54,303.63s2.56,16,17.31,13.44"/><polyline id="nose" class="cls-3" points="643.84 238.2 649.92 291.12 631.26 286.35"/><ellipse id="eye_II" data-name="eye II" class="cls-2" cx="664.37" cy="239.12" rx="5.42" ry="8.39"/><ellipse id="eye" class="cls-2" cx="612.18" cy="238.2" rx="5.42" ry="8.39"/><path id="brow_II" data-name="brow II" class="cls-3" d="M587.67,199.4a24.86,24.86,0,0,1,23.53-9.26"/><path id="brow" class="cls-3" d="M661,189.27s15-3.91,18.79,8.38"/></g><line id="line-2" data-name="line" class="cls-1" x1="3" y1="798.49" x2="1267.77" y2="798.49"/></g></g></g></svg>