<?xml version="1.0" standalone="no"?>
<!DOCTYPE svg PUBLIC "-//W3C//DTD SVG 20010904//EN"
 "http://www.w3.org/TR/2001/REC-SVG-20010904/DTD/svg10.dtd">
<svg version="1.0" xmlns="http://www.w3.org/2000/svg"
 width="2600.000000pt" height="2600.000000pt" viewBox="0 0 2600.000000 2600.000000"
 preserveAspectRatio="xMidYMid meet">
<metadata>
Created by potrace 1.14, written by Peter Selinger 2001-2017
</metadata>
<g transform="translate(0.000000,2600.000000) scale(0.100000,-0.100000)"
fill="#000000" stroke="none">
<path d="M0 13000 l0 -13000 13000 0 13000 0 0 13000 0 13000 -13000 0 -13000
0 0 -13000z m2400 0 l0 -12600 -1000 0 -1000 0 0 12600 0 12600 1000 0 1000 0
0 -12600z m1149 12418 c-1 -101 -1 -194 0 -208 l1 -25 1480 2 1480 1 0 -12188
0 -12188 -1476 0 c-811 0 -1478 -3 -1481 -6 -3 -3 -6 -94 -7 -203 l-1 -198
-372 -3 -373 -2 0 12600 0 12600 375 0 374 0 0 -182z m19651 -12418 l0 -12600
-4640 0 -4640 0 0 205 0 205 -27 1 c-16 0 -675 0 -1465 1 l-1438 0 -1 71 c0
87 0 11274 0 11302 1 20 8 20 753 20 656 0 1022 6 1283 20 39 2 129 6 200 10
72 3 162 8 200 10 39 3 111 7 160 10 86 5 165 10 285 21 30 2 84 7 120 9 36 3
85 7 110 10 54 5 160 15 215 20 93 7 182 16 205 21 26 4 56 8 170 19 36 4 72
8 80 10 8 1 42 6 75 9 33 4 67 9 75 11 8 2 42 6 75 10 53 5 216 28 285 40 14
2 48 7 75 11 28 3 52 7 55 9 3 2 29 6 59 10 30 4 61 8 70 10 9 1 36 6 61 10
25 4 54 9 65 11 11 3 34 7 50 9 17 3 122 23 235 45 113 22 221 43 240 46 19 3
49 9 65 14 17 4 48 12 70 16 50 9 27 4 255 58 200 47 610 157 735 196 138 43
440 141 455 147 8 3 20 7 25 8 6 2 78 28 160 58 216 80 424 165 612 249 26 12
50 22 53 23 42 14 467 227 558 279 35 20 65 36 67 36 2 0 77 44 167 98 90 53
167 99 172 101 28 12 344 231 471 326 261 196 436 348 664 575 130 129 195
198 301 320 186 213 447 577 583 815 97 169 121 215 202 380 197 403 370 896
459 1307 24 109 67 320 71 348 3 20 7 47 10 60 3 13 7 42 10 65 4 22 8 54 11
70 3 17 7 46 10 65 2 19 6 51 9 70 13 94 22 174 30 265 3 39 8 88 10 110 3 22
7 92 11 155 3 63 8 142 9 175 5 83 5 665 1 745 -9 144 -17 267 -21 305 -2 22
-7 72 -10 110 -11 125 -53 434 -70 515 -3 14 -8 41 -11 60 -3 19 -7 42 -9 50
-2 8 -7 29 -9 45 -3 17 -13 62 -21 100 -9 39 -18 81 -21 95 -16 81 -103 384
-149 518 -174 511 -390 934 -694 1357 -247 343 -613 724 -946 985 -22 17 -47
36 -55 43 -9 7 -33 25 -55 42 -22 16 -47 35 -55 42 -40 33 -355 245 -442 298
-209 127 -654 360 -828 434 -30 13 -74 32 -98 42 -264 118 -839 321 -1162 409
-36 10 -115 32 -176 48 -61 17 -123 33 -138 36 -15 3 -42 10 -59 15 -18 6 -43
13 -57 15 -14 3 -43 10 -65 16 -34 8 -74 18 -198 45 -10 2 -26 6 -35 9 -9 3
-33 8 -52 11 -19 3 -63 12 -98 20 -34 8 -75 17 -92 20 -16 3 -74 14 -127 24
-54 11 -118 22 -143 26 -25 3 -61 10 -80 15 -19 5 -80 16 -135 24 -55 9 -109
18 -120 20 -11 2 -40 7 -65 10 -25 3 -56 8 -70 10 -65 12 -232 35 -295 42 -27
3 -52 8 -54 10 -2 2 1677 4 3732 4 l3737 0 0 -12600z m2400 0 l0 -12600 -1000
0 -1000 0 0 12600 0 12600 1000 0 1000 0 0 -12600z m-12930 12175 c58 -3 137
-7 175 -9 114 -6 268 -17 294 -21 14 -3 63 -7 110 -10 47 -4 97 -8 111 -11 28
-4 179 -24 227 -29 17 -2 57 -8 90 -14 32 -5 74 -12 93 -15 19 -3 46 -8 60
-11 14 -3 40 -7 59 -10 18 -2 41 -7 50 -9 9 -3 32 -8 51 -11 62 -10 247 -54
360 -84 367 -98 714 -240 1015 -414 102 -59 263 -163 315 -204 250 -194 434
-372 629 -608 9 -11 27 -36 41 -55 13 -19 27 -37 30 -40 4 -3 36 -48 72 -100
217 -316 405 -702 541 -1110 91 -271 141 -451 187 -660 10 -47 25 -116 33
-155 9 -38 18 -90 22 -115 4 -24 8 -47 10 -50 2 -3 6 -26 10 -50 7 -51 9 -61
29 -185 8 -49 18 -110 21 -135 3 -25 8 -56 10 -70 2 -14 7 -50 10 -80 3 -30 8
-66 10 -80 5 -27 15 -127 30 -295 3 -33 8 -76 10 -95 4 -32 7 -81 20 -280 22
-347 29 -571 29 -1030 0 -558 -14 -923 -49 -1340 -2 -30 -7 -86 -10 -125 -3
-38 -8 -86 -10 -105 -3 -19 -7 -60 -10 -90 -6 -61 -13 -117 -20 -170 -3 -19
-7 -53 -10 -75 -9 -74 -18 -141 -35 -250 -18 -114 -23 -146 -46 -272 -164
-906 -467 -1662 -889 -2222 -40 -53 -81 -106 -91 -117 -11 -12 -39 -46 -64
-75 -152 -182 -426 -424 -652 -577 -165 -111 -531 -311 -618 -337 -14 -4 -30
-11 -35 -15 -14 -11 -282 -112 -385 -145 -150 -48 -212 -66 -370 -106 -191
-49 -176 -45 -230 -55 -25 -4 -47 -8 -50 -9 -56 -14 -146 -32 -196 -39 -22 -4
-75 -13 -119 -21 -44 -8 -100 -17 -125 -20 -25 -3 -56 -8 -70 -10 -23 -4 -46
-7 -150 -20 -283 -36 -519 -56 -915 -80 -324 -19 -1246 -40 -1280 -28 -7 2 -9
2060 -8 6151 1 3381 2 6162 2 6179 l1 33 788 -4 c433 -2 834 -7 892 -11z"/>
</g>
</svg>
